# xmcd
#
# Track frame offsets:
#	150
#	22191
#	40576
#	65317
#	79029
#	98630
#	111890
#	132311
#	148801
#	165215
#	182892
#	202496
#	222865
#	237551
#	267978
#
# Disc length: 3999 seconds
#
# Revision: 1
# Processed by: cddbd v1.5.2PL0 Copyright (c) Steve Scherf et al.
# Submitted via: audiograbber 1.83.01
#
DISCID=dc0f9d0f
DTITLE=Воровайки - десятый альбом
DYEAR=2009
DGENRE=Chanson 
TTITLE0=Обама-мама
TTITLE1=Рожа протокольная
TTITLE2=Тополь
TTITLE3=Наш ОМОН
TTITLE4=Бабий остров
TTITLE5=Стриптизёрки
TTITLE6=Тюльпаны
TTITLE7=Закон
TTITLE8=Синеглазый
TTITLE9=Столовка
TTITLE10=Каманча
TTITLE11=Мусор на пенсии
TTITLE12=Девчогка рыжая
TTITLE13=Столыпин
TTITLE14=Data Track
EXTD=
EXTT0=
EXTT1=
EXTT2=
EXTT3=
EXTT4=
EXTT5=
EXTT6=
EXTT7=
EXTT8=
EXTT9=
EXTT10=
EXTT11=
EXTT12=
EXTT13=
EXTT14=
PLAYORDER=
